PathFileType	4	(X/Y/Z)	/Users/rkoike/Documents/python/sports2d/webcam_20250611_152632/webcam_20250611_152632_px_person00.trc
DataRate	CameraRate	NumFrames	NumMarkers	Units	OrigDataRate	OrigDataStartFrame	OrigNumFrames
30	30	13	22	m	30	931	2485
Frame#	Time	Hip			RHip			RKnee			RAnkle			RBigToe			RSmallToe			RHeel			LHip			LKnee			LAnkle			LBigToe			LSmallToe			LHeel			Neck			Head			Nose			RShoulder			RElbow			RWrist			LShoulder			LElbow			LWrist			
		X1	Y1	Z1	X2	Y2	Z2	X3	Y3	Z3	X4	Y4	Z4	X5	Y5	Z5	X6	Y6	Z6	X7	Y7	Z7	X8	Y8	Z8	X9	Y9	Z9	X10	Y10	Z10	X11	Y11	Z11	X12	Y12	Z12	X13	Y13	Z13	X14	Y14	Z14	X15	Y15	Z15	X16	Y16	Z16	X17	Y17	Z17	X18	Y18	Z18	X19	Y19	Z19	X20	Y20	Z20	X21	Y21	Z21	X22	Y22	Z22
931	31.04582662372517	736.141156665634	488.8812175741584	0.0	1243.9815577646893	632.5042915429607	0.0	1208.268561723175	665.7703479950271	0.0	1146.2448756482079	613.4534010208829	0.0	1045.2273870169233	717.313134426437	0.0	1430.0549238461017	727.9131448644029	0.0	1088.2808869644264	727.0980207781423	0.0	1206.5960863019002	640.0510095464791	0.0	1190.7600647645972	666.150160750176	0.0	1155.9173226329215	602.0882253121666	0.0			0.0			0.0			0.0	1273.042858771247	10.05907940562832	0.0	1243.7342677392512	51.094784486430264	0.0	1238.1788189372928	107.97768211311981	0.0	1256.099311084919	27.687456565910065	0.0	1259.4529934054362	313.93566143283135	0.0	1209.1942894748356	553.3178646934849	0.0	1255.4119763332349	22.26269014038302	0.0	1248.38624432037	312.88341363450985	0.0	1150.5071961977435	551.6169388760713	0.0
932	31.07917337627482	736.1411564314084	488.8812180558841	0.0	1244.7382081487617	633.0353105813306	0.0	1207.8358145034663	657.8368826891635	0.0	1169.3530669016664	613.9912351505614	0.0	1045.2273870169233	717.313134426437	0.0	1430.0549289113421	727.9134238786338	0.0	1088.2808869644264	727.0980207781423	0.0	1209.092619923517	637.2150408722594	0.0	1187.8523956409897	660.6436553721948	0.0	1173.8224553887646	604.158041503554	0.0			0.0			0.0			0.0	1273.0426678427282	10.059074527909265	0.0	1259.5970303164459	65.66479039375592	0.0	1241.298281043516	126.9364524175265	0.0	1257.4048510079786	24.45100692419576	0.0	1258.933513936636	321.0615001027116	0.0	1200.1310479118572	559.1204905712979	0.0	1256.1559204019895	20.21510712133846	0.0	1250.4922061119723	318.6584627913569	0.0	1175.4152000716517	561.6125278952469	0.0
933	31.11252012882447	736.1411562565252	488.88121808466747	0.0	1247.18307081594	632.8864358779138	0.0	1204.9884554073385	654.3558450060765	0.0	1187.1845412305659	623.3943158822583	0.0	1045.2273870169233	717.313134426437	0.0	1430.054966295548	727.9154831542141	0.0	1088.2808869644264	727.0980207781423	0.0	1213.3549113535887	635.4146837928789	0.0	1187.3226769846783	658.2253935018157	0.0	1189.4553196797738	612.383035709292	0.0			0.0			0.0			0.0	1273.042895813335	10.05907979237701	0.0	1272.7609441911059	82.49545348962424	0.0	1249.4882547897198	142.47438502351798	0.0	1258.2566297240862	22.11146190142022	0.0	1257.3535416346185	324.42950519967695	0.0	1195.5733186166885	562.5230709974014	0.0	1256.2446047717667	17.859678488368807	0.0	1249.2143475486046	321.18681264750177	0.0	1197.8759436184025	566.5298159361417	0.0
934	31.145866881374122	736.1411571226544	488.88121567888777	0.0	1250.3566771884211	634.2281993186922	0.0	1199.0862193895005	656.5302122830119	0.0	1189.350735275604	639.1566307430837	0.0	1045.2273870169233	717.313134426437	0.0	1430.055010976576	727.9179443687253	0.0	1088.2808869644264	727.0980207781423	0.0	1216.6174300699856	637.820148187136	0.0	1185.127940948927	659.8962422561209	0.0	1193.5156781439018	624.8502116414948	0.0			0.0			0.0			0.0	1273.0428964440025	10.05908332078786	0.0	1275.7185606502803	95.90606639042379	0.0	1257.4345634597485	149.5622384503869	0.0	1257.486797596164	22.271628699183424	0.0	1256.9439767500742	328.16263782925483	0.0	1197.1949550358527	562.4145064477954	0.0	1255.2444643839626	16.441966170756885	0.0	1247.1177522510002	325.1965380365662	0.0	1205.9157692019835	564.3688245738873	0.0
935	31.179213633923773	736.141159650243	488.8812109919057	0.0	1253.6493161058204	637.8481666092936	0.0	1195.6842760390423	659.444120593156	0.0	1188.168153069419	648.1989101903744	0.0	1045.2273870169233	717.313134426437	0.0	1430.0549043797023	727.9120725751834	0.0	1088.2808869644264	727.0980207781423	0.0	1221.3978432185822	642.8740657015109	0.0	1184.2220176009628	662.4523459471881	0.0	1194.4430992148739	634.2579236877272	0.0			0.0			0.0			0.0	1273.0426741387032	10.05908406775941	0.0	1270.5181785001355	99.79641489868168	0.0	1260.9178965245442	144.0828241182382	0.0	1256.1093814600545	22.926307083277287	0.0	1258.0443427644047	329.34384894640266	0.0	1202.2500610560621	560.1013464302649	0.0	1254.924323109859	15.730719675117754	0.0	1247.8939731454936	328.15188072659475	0.0	1207.161977576264	561.1313990222177	0.0
936	31.212560386473427	736.1411599969165	488.8812144329547	0.0	1256.9420112366522	643.6166730539579	0.0	1198.5194397852947	659.4876637684515	0.0	1195.0334567761565	642.375614894729	0.0	1045.2273870169233	717.313134426437	0.0	1430.0544750398387	727.8884227724366	0.0	1088.2808869644264	727.0980207781423	0.0	1230.2732259744803	648.5704633324226	0.0	1187.3611660893998	663.5076335932957	0.0	1200.7079930474877	636.210220376664	0.0			0.0			0.0			0.0	1273.0428740678085	10.059081340700724	0.0	1260.6834734575632	91.60371910930151	0.0	1258.6684253428032	124.51784044406382	0.0	1255.1575945066875	22.242968111932523	0.0	1260.1860944719322	324.6078566132842	0.0	1208.4393196722424	556.7430170188344	0.0	1256.6115649103292	15.20427185456251	0.0	1253.2252581239661	326.7792406463189	0.0	1210.300706805187	561.4205775611669	0.0
937	31.24590713902308	736.1411477431332	488.88124486230015	0.0	1259.8421089143992	650.090096872849	0.0	1205.3277259414228	657.329414883968	0.0	1207.4637599620535	627.0616632605012	0.0	1045.2273870169233	717.313134426437	0.0	1430.0542091982506	727.8737791261062	0.0	1088.2808869644264	727.0980207781423	0.0	1241.0818137737424	653.7745339245572	0.0	1192.7852609536671	663.3230184928775	0.0	1210.575540370736	632.7728124824628	0.0			0.0			0.0			0.0	1273.0444325213025	10.059073402771416	0.0	1249.3389814575228	76.5269316245782	0.0	1252.8415489727859	98.02088491826895	0.0	1254.6641784643537	20.575327860390807	0.0	1262.4525246025846	316.17845029871603	0.0	1214.087482818778	553.1578858787266	0.0	1259.445922906585	14.831627075292761	0.0	1260.7708689269102	322.36104604976134	0.0	1215.5016022484685	564.3830984581839	0.0
938	31.27925389157273	736.14112284839	488.88128471317344	0.0	1261.3599048383282	654.903214851288	0.0	1211.1986626682256	655.2417826390056	0.0	1216.1368599637985	613.3129905695516	0.0	1045.2273870169233	717.313134426437	0.0	1430.0559000948303	727.9669206532915	0.0	1088.2808869644264	727.0980207781423	0.0	1248.5920688501672	657.2747051114723	0.0	1196.15806514304	663.1084402672388	0.0	1216.9664871350083	628.0690782925562	0.0			0.0			0.0			0.0	1273.0462475287966	10.059070009270318	0.0	1240.0203480724183	63.42435894868875	0.0	1246.5530717982242	77.12484018508529	0.0	1254.264689379023	19.297457390525533	0.0	1263.5302490303175	309.4735066203394	0.0	1216.7523897824801	550.3592613426409	0.0	1261.4431642468085	14.966644007049341	0.0	1266.1491786718866	318.6325994467389	0.0	1218.6790433481985	566.9995190909834	0.0
939	31.31260064412238	736.1411384472101	488.88120451860425	0.0	1260.8996888587803	656.8327323634282	0.0	1213.6772666443592	654.3547878866408	0.0	1216.0077105156454	606.5635296475238	0.0	1045.2273870169233	717.313134426437	0.0	1430.0604486275013	728.2174725110979	0.0	1088.2808869644264	727.0980207781423	0.0	1249.9678602597053	658.4260470237501	0.0	1195.1806836384387	663.4637658189446	0.0	1215.9688226402086	623.9596992540813	0.0			0.0			0.0			0.0	1273.0416661107142	10.059103077941009	0.0	1234.4412882459567	56.63047596515236	0.0	1241.1608466050493	68.25136912926882	0.0	1253.7724607057528	19.142842270705064	0.0	1262.7457165425856	307.3618656005007	0.0	1215.053287427912	548.8801028132383	0.0	1261.5947618409914	15.848859854211263	0.0	1267.1548367693504	317.57693002461895	0.0	1217.4552435793303	567.7390105122141	0.0
940	31.34594739667203	736.1412950175584	488.88084966984763	0.0	1259.0920029963352	656.77408244299	0.0	1213.746043807102	654.3360389603226	0.0	1209.6352495056972	604.780703424377	0.0	1045.2273870169233	717.313134426437	0.0	1430.0603971033872	728.2146343513197	0.0	1088.2808869644264	727.0980207781423	0.0	1247.088152690622	657.9824808726923	0.0	1191.1781140614282	664.2319945542283	0.0	1209.7405292865665	620.3211075587467	0.0			0.0			0.0			0.0	1273.0237543772503	10.059182877180385	0.0	1231.4341955955654	54.27276098195888	0.0	1236.4048098197418	67.78633466377205	0.0	1253.2189021135082	19.79181941150573	0.0	1260.6905028321917	308.52139544803697	0.0	1210.3482167080579	548.3160445657006	0.0	1260.50203790403	17.25680970612681	0.0	1265.1686236451524	318.4522937158191	0.0	1213.1257245764978	567.1344329710097	0.0
941	31.379294149221682	736.1415108235805	488.88058956936607	0.0	1256.9564306711643	656.2539552237803	0.0	1213.275572592351	654.5042808360025	0.0	1201.8277899589627	604.0778252535916	0.0	1045.2273870169233	717.313134426437	0.0	1430.0370712314257	726.92974953726	0.0	1088.2808869644264	727.0980207781423	0.0	1243.210089229726	657.1606680680654	0.0	1186.4725245451953	665.0876097292444	0.0	1202.2993907525129	616.7415316499865	0.0			0.0			0.0			0.0	1273.0133598282484	10.059164823749956	0.0	1229.0089513987466	52.8896185669934	0.0	1231.7583866694292	69.23286142652029	0.0	1252.6504081250696	20.62283128662976	0.0	1258.3382206276551	310.4229479870578	0.0	1204.9308448743182	547.9639507134222	0.0	1259.1152267538987	18.79145016543066	0.0	1262.4903981948587	319.7610366573837	0.0	1208.0565748108436	566.2341453844982	0.0
942	31.412640901771333	736.141118494927	488.88191088574195	0.0	1254.7987652612442	655.891249148131	0.0	1213.0847386727623	654.5707122118858	0.0	1194.7249773095984	602.8045587495745	0.0	1045.2273870169233	717.313134426437	0.0	1429.9933156815764	724.5195141717803	0.0	1088.2808869644264	727.0980207781423	0.0	1239.5166988775925	656.4452858938175	0.0	1181.8571438710746	665.9142041982356	0.0	1195.4463685607807	613.0984455551178	0.0			0.0			0.0			0.0	1273.0852197730153	10.058723305888957	0.0	1226.300523028643	51.00209931021421	0.0	1227.0368079847638	69.73952776330717	0.0	1251.9886077788638	21.350943785586278	0.0	1256.0619214169324	311.9029844640083	0.0	1199.795842424645	547.4986675421452	0.0	1257.520336966724	20.257203307992516	0.0	1259.7874343377646	320.81020279181536	0.0	1203.0372811247264	565.4616084643626	0.0
943	31.445987654320984	736.1392760370587	488.8857326579913	0.0	1252.424407693091	655.5788533187072	0.0	1213.1535231557402	654.5558580947541	0.0	1188.1829561669585	601.1138864948338	0.0	1045.2273870169233	717.313134426437	0.0	1430.0298653449513	726.532819719674	0.0	1088.2808869644264	727.0980207781423	0.0	1235.6238946126896	655.7360286424886	0.0	1177.0096317480522	666.7466539788751	0.0	1189.0670689153367	609.431104997159	0.0			0.0			0.0			0.0	1273.2739104726347	10.057982287106073	0.0	1223.382042215657	48.743889988285716	0.0	1222.2799708117143	69.52499856035247	0.0	1251.1291064799277	21.985519711516208	0.0	1253.7682851944626	312.9907512646005	0.0	1194.8321426375549	546.9287666153796	0.0	1255.3374343536177	21.65183480114669	0.0	1256.6232486581553	321.60991956596916	0.0	1197.70931586384	564.7504901349779	0.0
